<?xml version="1.0" standalone="no"?>
<!DOCTYPE svg PUBLIC "-//W3C//DTD SVG 20010904//EN"
 "http://www.w3.org/TR/2001/REC-SVG-20010904/DTD/svg10.dtd">
<svg version="1.0" xmlns="http://www.w3.org/2000/svg"
 width="771.000000pt" height="662.000000pt" viewBox="0 0 771.000000 662.000000"
 preserveAspectRatio="xMidYMid meet">

<g transform="translate(0.000000,662.000000) scale(0.100000,-0.100000)"
fill="#000000" stroke="none">
<path d="M3727 5670 c-533 -45 -1077 -231 -1578 -541 -167 -103 -256 -168
-408 -297 -413 -350 -746 -773 -997 -1268 -52 -102 -75 -159 -83 -209 -12 -67
-12 -68 24 -144 118 -250 370 -630 580 -876 417 -489 984 -874 1620 -1099 186
-66 392 -120 520 -136 50 -6 128 -18 176 -26 124 -20 194 -25 386 -25 192 0
282 8 553 52 377 62 671 159 1000 331 262 138 380 211 555 347 416 322 723
673 1037 1181 189 306 196 325 163 433 -47 154 -364 668 -571 923 -98 122
-354 385 -467 482 -177 150 -397 310 -551 401 -410 241 -881 404 -1321 456
-153 19 -498 26 -638 15z m673 -448 c489 -90 801 -218 1240 -507 339 -224 679
-571 928 -948 50 -75 108 -168 128 -205 21 -37 59 -104 85 -149 l48 -82 -107
-178 c-181 -299 -359 -531 -580 -756 -341 -347 -844 -656 -1302 -801 -132 -42
-456 -110 -575 -121 -178 -17 -571 -4 -752 25 -185 30 -468 110 -639 181 -112
46 -375 185 -509 268 -311 192 -678 530 -918 847 -85 112 -277 403 -309 468
l-31 64 26 54 c74 151 245 419 384 602 89 117 279 325 392 430 92 84 238 200
336 267 44 30 103 71 130 91 84 60 382 213 530 272 169 67 339 116 540 157
200 41 274 47 580 44 216 -2 280 -6 375 -23z"/>
<path d="M3735 4779 c-279 -44 -446 -114 -685 -288 -143 -104 -348 -322 -415
-442 -96 -169 -161 -412 -171 -643 -12 -238 37 -452 154 -683 194 -383 516
-654 912 -768 167 -48 244 -58 445 -58 187 -1 284 13 459 65 425 125 780 468
956 923 69 179 84 266 84 500 0 126 -5 220 -13 255 -43 188 -119 357 -208 467
-32 39 -85 106 -118 149 -80 103 -188 201 -314 285 -272 183 -519 257 -851
256 -69 0 -174 -8 -235 -18z m-545 -928 c5 -11 10 -29 10 -41 0 -20 4 -22 38
-16 80 14 241 18 322 8 123 -16 232 -42 227 -56 -6 -17 -120 -45 -252 -61
-150 -18 -233 -18 -265 0 -45 26 -50 20 -50 -55 0 -85 15 -105 106 -140 82
-32 213 -32 409 -1 172 27 278 25 480 -9 66 -11 153 -20 194 -20 62 0 81 4
130 30 104 57 106 59 106 144 0 41 -4 78 -8 82 -5 5 -27 -2 -49 -15 -36 -20
-52 -23 -148 -22 -180 2 -370 33 -370 61 0 8 105 33 215 51 71 12 291 8 333
-6 19 -6 22 -4 22 17 0 13 7 34 16 46 12 18 24 22 52 20 34 -3 38 -7 52 -46
12 -36 18 -42 35 -37 115 37 232 45 365 25 36 -6 88 -13 115 -16 44 -6 75 -24
75 -45 0 -15 -172 -59 -278 -70 -123 -13 -207 -7 -254 17 l-30 16 7 -89 c8
-103 4 -111 -105 -209 -110 -100 -152 -129 -233 -164 -43 -18 -74 -37 -70 -41
4 -4 44 -22 88 -39 93 -36 205 -56 258 -46 47 9 52 26 42 156 -6 92 -5 99 14
109 46 25 90 6 105 -45 7 -22 8 -22 56 -6 88 28 430 -3 430 -39 0 -15 -35 -27
-129 -43 -145 -25 -247 -22 -305 9 -52 28 -53 26 -31 -58 8 -32 15 -67 15 -77
0 -29 -52 -82 -112 -116 -47 -26 -62 -29 -133 -28 -66 1 -98 7 -185 39 -94 35
-115 39 -202 39 l-98 1 -42 -46 c-62 -67 -111 -82 -246 -78 l-109 4 -56 43
c-32 23 -57 47 -57 52 0 5 -24 14 -53 20 -59 14 -69 12 -252 -39 -184 -52
-294 -40 -373 38 -41 42 -47 68 -29 129 18 64 10 79 -33 63 -60 -20 -276 -13
-412 15 -34 7 -37 30 -5 37 68 17 256 39 346 41 95 3 105 5 112 23 4 12 13 24
19 28 17 10 68 -5 98 -29 15 -13 45 -26 67 -29 22 -4 62 -18 90 -31 l49 -24
-37 -7 c-21 -4 -65 -5 -98 -3 l-60 4 3 -75 3 -76 40 -3 c45 -4 188 27 289 62
l69 24 -41 21 c-23 12 -47 21 -54 21 -27 0 -147 69 -214 122 -144 116 -158
142 -141 262 6 41 9 78 6 80 -3 3 -29 -3 -57 -14 -87 -33 -363 -20 -444 21
-66 34 -49 49 78 74 71 13 130 16 263 14 164 -4 172 -3 177 16 10 33 25 45 55
45 18 0 32 -7 39 -19z m1544 -521 c33 -12 35 -45 4 -54 -13 -3 -61 -6 -108 -6
l-84 0 54 35 c56 36 90 42 134 25z"/>
</g>
</svg>
